<svg id="visual" viewBox="0 0 900 600" width="900" height="600" xmlns="http://www.w3.org/2000/svg" xmlns:xlink="http://www.w3.org/1999/xlink" version="1.1"><rect x="0" y="0" width="900" height="600" fill="#ffffff"></rect><defs><linearGradient id="grad1_0" x1="33.3%" y1="0%" x2="100%" y2="100%"><stop offset="20%" stop-color="#ffffff" stop-opacity="1"></stop><stop offset="80%" stop-color="#ffffff" stop-opacity="1"></stop></linearGradient></defs><defs><linearGradient id="grad2_0" x1="0%" y1="0%" x2="66.7%" y2="100%"><stop offset="20%" stop-color="#ffffff" stop-opacity="1"></stop><stop offset="80%" stop-color="#ffffff" stop-opacity="1"></stop></linearGradient></defs><g transform="translate(900, 0)"><path d="M0 270.4C-39.6 250.4 -79.2 230.5 -121.5 210.4C-163.8 190.4 -208.9 170.3 -234.2 135.2C-259.5 100.1 -264.9 50.1 -270.4 0L0 0Z" fill="#F7770F"></path></g><g transform="translate(0, 600)"><path d="M0 -270.4C53.6 -267 107.3 -263.6 135.2 -234.2C163.1 -204.8 165.3 -149.4 183.6 -106C201.8 -62.6 236.1 -31.3 270.4 0L0 0Z" fill="#F7770F"></path></g></svg>